<svg width="595" height="689" viewBox="0 0 595 689" fill="none" xmlns="http://www.w3.org/2000/svg">
<path fill-rule="evenodd" clip-rule="evenodd" d="M157.117 155.471C156.411 167.003 155.705 178.533 155 190.065C159.539 188.758 188.411 180.263 186.628 188.876C185.348 195.054 177.231 201.737 173.095 206.038C169.289 209.998 165.369 213.855 161.35 217.599C168.737 214.771 176.186 212.093 183.688 209.588C189.365 207.692 195.084 205.842 200.901 204.421C203.06 203.893 208.89 201.74 210.93 203.208C216.29 207.066 187.207 235.479 183.223 239.484C188.856 236.864 194.625 234.484 200.491 232.442C204.727 230.968 217.813 225.333 221.561 230.145C225.573 235.293 215.634 247.114 212.877 250.862C208.928 256.233 204.648 261.385 200.157 266.312C218.822 283.076 240.756 297.998 264.099 307.272C281.214 314.073 298.027 315.804 316.087 312.072C334.641 308.238 352.435 300.885 369.35 292.478C379.284 287.54 389.087 282.197 398.426 276.195C394.576 271.512 390.838 266.731 387.206 261.878C382.023 254.947 375.652 247.375 372.697 239.125C369.804 231.051 380.656 232.627 385.861 233.066C393.399 233.701 400.917 235.048 408.304 236.66C403.081 233.027 397.952 229.249 392.927 225.348C386.377 220.264 377.64 214.516 373.353 207.202C369.583 200.771 377.857 202.395 381.683 203.237C390.805 205.247 399.681 208.671 408.381 212.011C414.752 214.457 421.084 217.019 427.355 219.717C423.463 216.333 419.701 212.787 416.086 209.111C411.225 204.17 404.672 198.135 402.493 191.331C398.056 177.473 427.904 187.926 433 190.065C432.058 175.71 431.118 161.355 430.177 147C390.655 157.516 351.133 168.034 311.61 178.551C307.339 179.688 301.994 182.163 297.539 182.295C293.505 182.416 288.632 180.599 284.698 179.848L213.178 166.183C194.491 162.612 175.804 159.042 157.117 155.471Z" fill="#FF5678"/>
<path fill-rule="evenodd" clip-rule="evenodd" d="M581.896 649.215C577.629 651.657 572.631 653.542 567.891 654.806C565.107 655.55 560.507 657.845 558.061 655.742C556.887 654.732 556.618 652.438 555.925 651.109C554.829 649.004 553.27 647.187 551.81 645.327C548.271 640.82 544.589 636.472 540.736 632.23C538.91 630.221 535.575 625.53 532.358 625.838C528.348 626.223 528.444 631.773 529.449 634.609C532.649 643.637 542.334 651.507 548.661 658.309C547.052 660.784 538.218 660.489 535.765 659.91C532.019 659.026 531.64 656.359 529.931 653.308C525.933 646.179 517.822 642.19 511.155 637.999C508.724 636.469 503.558 632.234 500.39 633.3C497.388 634.31 497.518 638.145 498.474 640.649C499.918 644.434 504.027 647.059 507.066 649.451C511.118 652.64 514.823 656.11 518.199 660.013C513.332 660.41 508.483 661.096 503.629 661.496C497.758 661.98 492.865 658.759 487.46 656.933C482.438 655.236 477.434 653.801 472.496 651.846C466.952 649.65 461.144 648.886 455.551 646.959C433.602 639.4 412.096 629.892 390.945 620.309C380.867 615.741 370.996 611.172 360.494 607.598C352.841 604.993 340.815 599.801 338.985 590.685C338.019 585.868 341.538 580.688 342.057 575.876C342.665 570.214 342.186 563.985 340.462 558.553C338.941 553.768 336.422 549.336 334.437 544.742C332.124 539.387 334.195 539.474 338.688 538.865C344.066 538.136 350.342 535.108 355.397 533.137C361.22 530.864 366.993 527.69 372.326 524.425C377.15 521.473 381.347 517.667 385.187 513.534C389.094 509.33 391.623 504.348 395.4 500.04C409.339 517.183 422.588 534.587 437.4 550.989C444.39 558.731 451.992 565.132 460.607 571.019C464.204 573.478 467.773 576.285 471.692 578.229C476.593 580.661 482.072 582.17 487.109 584.39C506.423 592.9 524.855 602.203 542.874 613.184C551.591 618.495 558.907 624.585 566.582 631.248C568.972 633.323 588.542 645.412 581.896 649.215ZM355.329 508.775C352.208 510.189 349.233 512.025 345.903 512.933C346.847 507.189 352.207 498.525 359.079 499.478C361.705 499.842 363.685 501.881 362.532 504.692C361.483 507.246 357.553 507.769 355.329 508.775ZM138.076 352.982C134.538 354.936 131.241 356.073 129.166 351.88C130.703 351.572 137.684 350.641 138.076 352.982ZM132.185 341.127C129.45 340.298 131.637 339.426 132.578 338.425C133.311 337.647 135.738 334.915 136.587 334.464C140.338 332.477 143.237 339.87 145.031 342.27C140.785 341.892 136.318 342.381 132.185 341.127ZM161.422 366.725C156.239 367.604 156.814 361.119 156.969 357.834C158.062 359.168 165.463 366.041 161.422 366.725ZM178.598 355.525C172.279 356.591 168.104 345.674 169.237 340.899C170.233 336.692 175.13 334.343 179.029 333.723C182.807 333.121 188.068 333.942 189.19 338.3C190.182 342.151 182.809 354.814 178.598 355.525ZM328.171 520.328C323.63 521.723 319.181 521.899 314.617 523.269C309.439 524.823 304.646 524.685 299.457 525.743C297.346 526.172 291.652 529.248 289.593 528.561C287.553 527.881 284.601 521.551 283.429 519.905C292.609 516.089 300.441 511.162 306.492 503.121C311.303 496.727 316.463 487.148 313.436 478.895C310.022 469.591 298.254 467.571 290.408 471.458C286.696 473.295 283.017 475.58 279.956 478.381C276.457 481.583 275.081 485.079 272.814 489.028C270.522 493.022 268.913 490.8 266.622 487.408C264.665 484.509 264.92 481.582 262.474 478.721C261.226 477.262 259.293 475.853 258.642 473.968C258.229 472.773 259.099 470.654 258.316 469.713C257.215 468.391 255.875 469.944 254.952 468.764C254.282 467.907 254.501 465.952 253.809 464.879C253.208 464.269 252.541 463.749 251.802 463.316C250.906 462.874 250.743 462.32 251.311 461.655C250.599 460.336 251.285 459.891 249.76 458.287C247.382 455.786 245.214 453.39 243.521 450.438C242.748 449.087 242.824 447.084 241.863 445.915C240.544 444.309 238.347 444.55 237.213 442.563C236.203 440.792 236.879 437.696 235.213 436.088C234.335 435.837 233.456 435.591 232.577 435.348C231.915 434.706 231.53 433.926 231.42 433.009C230.495 431.584 230.311 429.911 229.143 428.406C226.907 425.528 223.9 422.869 221.925 419.835C219.849 416.645 220.95 416.108 224.556 414.967C227.808 413.936 230.778 412.98 233.793 411.226C247.73 403.115 260.943 381.6 238.821 375.027C230.612 372.588 223.868 366.028 214.765 368.606C210.819 369.725 207.076 372.104 204.132 374.928C202.098 376.881 200.214 382.102 197.717 383.102C193.227 384.9 195.125 380.408 193.851 378.344C193.242 377.359 190.793 376.224 189.885 375.327C188.82 374.276 187.79 372.949 187.05 371.649C185.677 369.236 184.837 367.891 182.857 365.926C182.111 365.184 178.384 361.352 181.745 361.853C180.384 357.704 182.37 357.08 185.116 354.049C188.34 350.49 191.669 345.544 191.688 340.557C191.725 330.982 180.379 326.692 173.253 332.375C171.803 333.532 163.227 344.696 164.982 337.576C165.928 333.737 174.688 323.712 178.749 326.306C174.198 319.673 163.743 335.779 161.303 339.074C159.225 335.249 159.078 332.256 155.64 329.294C152.841 333.783 154.319 328.877 153.702 327.88C152.369 325.726 153.101 328.189 152.378 327.424C151.478 326.471 150.061 325.72 149.103 324.458C147.462 326.684 148.118 324.289 147.615 323.458C146.44 321.513 146.894 320.387 144.88 318.696C143.414 317.467 140.526 315.558 138.553 315.383C136.278 315.181 135.648 316.053 133.33 315.408C130.381 314.588 126.67 313.328 128.097 318.261C129.134 321.845 133.348 323.882 134.271 327.544C135.2 331.23 131.555 334.945 129.787 337.967C127.516 341.845 125.659 341.528 121.545 342.402C118.916 342.961 115.407 344.156 117.662 347.345C119.272 349.624 123.046 349.144 125.171 350.494C128.151 352.386 128.11 357.052 131.915 357.864C136.105 358.758 138.505 354.093 142.038 352.966C144.55 352.165 152.332 352.254 154.309 354.141C157.003 356.71 154.675 361.621 155.353 364.813C156.362 369.548 159.565 369.837 163.616 369.989C168.603 370.175 170.356 374.963 173.038 378.762C179.32 387.658 184.78 397.142 191.215 405.92C194.064 409.807 198.231 413.265 200.563 417.483C203.443 422.692 199.444 425.697 195.994 429.436C191.485 434.322 188.119 439.882 184.208 445.223C180.733 449.969 176.414 448.787 170.861 448.787C172.098 446.236 173.587 444.645 176.632 444.954C173.448 441.067 170.902 445.514 168.837 447.977C165.849 451.539 161.954 452.398 158.116 454.741C156.758 455.569 149.363 460.941 151.61 462.775C151.865 462.983 164.107 454.93 165.501 454.191C165.501 457.164 164.851 460.253 165.268 463.209C165.573 465.377 167.097 467.638 166.772 469.893C166.157 474.147 160.658 477.499 158.298 480.814C156.521 483.309 156.95 485.277 156.046 487.955C155.221 490.398 155.654 489.659 153.599 490.414C149.415 491.951 142.372 491.122 138.583 488.936C136.231 487.58 134.428 485.436 132.517 483.547C131.078 482.122 127.458 479.689 127.058 477.696C126.372 474.264 133.185 467.888 134.533 464.348C138.341 454.358 131.811 446.593 121.649 446.026C124.781 443.61 128.663 445.43 131.964 446.352C126.321 438.532 116.682 444.967 111.895 450.281C108.624 442.013 107.047 433.291 105.049 424.668C103.688 418.797 98.5074 408.318 100.818 402.273C101.935 399.351 105.089 397.721 107.27 395.695C109.749 393.392 111.872 390.639 113.684 387.788C117.953 381.074 120.419 372.598 114.54 365.981C116.326 365.687 118.113 365.394 119.899 365.1C116.994 362.37 112.41 363.7 108.64 362.891C106.248 362.377 99.364 362.71 97.767 361.356C95.846 359.728 97.0775 352.238 97.146 350.021C97.3039 344.841 97.7369 339.86 98.309 334.71C98.8511 329.846 98.742 324.59 99.7472 319.811C100.563 315.933 103.171 314.751 106.18 312.466C113.372 307.001 119.233 300.354 116.777 290.936C117.647 290.798 118.517 290.66 119.387 290.522C116.573 288.487 112.932 289.227 109.802 288.151C112.676 280.061 119.033 265.839 129.355 265.073C129.71 268.69 129.467 272.991 131.907 275.985C134.685 279.393 139.561 279.737 143.324 277.934C146.739 276.296 149.944 272.826 151.518 269.398C152.583 267.077 152.391 263.153 154.26 261.314C156.766 258.847 174.047 260.335 173.518 264.499C173.206 266.947 168.585 271.062 167.294 273.232C164.93 277.203 163.038 281.498 162.17 286.059C160.853 292.985 161.616 302.128 168.649 305.769C176.648 309.911 186.396 304.645 192.956 300.095C196.558 297.597 200.047 294.84 203.337 291.944C205.09 290.404 206.851 288.816 208.396 287.064C209.537 285.771 210.448 283.685 211.852 282.716C215.169 280.428 218.42 284.31 221.227 286.271C225.799 289.466 230.348 292.499 235.256 295.158C245.214 300.552 254.319 307.698 263.124 314.793C271.98 321.93 281.112 329.272 288.286 338.164C283.941 340.836 284.716 341.531 282.783 346.299C281.411 349.682 279.521 352.562 279.303 356.322C278.926 362.81 283.091 368.339 289.413 369.776C292.949 370.579 296.317 369.936 299.592 368.49C302.138 367.367 304.675 364.601 307.335 363.914C312.279 362.639 316.235 371.979 319.006 375.269C331.314 389.88 344.324 403.914 355.914 419.122C357.197 420.806 361.01 424.096 361.32 426.327C361.765 429.529 356.727 432.581 354.638 434.417C353.54 435.38 341.904 446.326 345.811 448.066C346.925 448.562 350.185 441.846 351 441.271C354.052 439.121 351.744 443.336 351.562 445.467C351.107 450.763 354.745 453.649 359.858 452.977C365.315 452.261 370.172 447.954 373.549 443.885C377.78 448.786 384.395 456.195 385.618 462.742C386.4 466.925 382.781 477.161 389.537 478.014C390.568 478.144 394.3 475.375 394.996 476.947C395.576 478.259 391.542 480.502 390.96 480.936C388.474 482.792 386.972 484.78 384.965 487.028C382.609 489.667 379.389 491.89 376.738 494.418C373.945 497.082 368.42 504.316 364.735 500.821C362.883 499.064 363.37 496.768 360.403 495.737C357.701 494.798 354.278 495.988 351.768 497.03C348.941 498.201 339.632 502.477 338.599 505.998C337.174 510.853 344.869 505.016 346.236 504.163C344.676 508.123 343.814 513.857 339.841 516.167C336.54 518.086 331.792 519.215 328.171 520.328ZM275.402 490.374C278.044 481.883 293.624 466.743 303.471 471.478C291.995 473.883 282.888 481.737 275.402 490.374ZM281.228 514.691C277.388 512.551 277.595 506.335 276.255 502.698C275.485 500.612 273.946 499.087 274.399 496.772C274.929 494.057 278.391 491.04 280.234 489.082C286.034 482.919 296.242 474.498 305.578 475.911C317.461 477.709 309.405 493.664 305.359 499.157C301.91 503.841 288.621 518.812 281.228 514.691ZM253.506 504.306C240.655 503.448 227.848 502.299 215.172 499.94C210.678 499.104 206.913 499.227 209.484 494.061C210.333 492.355 215.452 481.667 216.608 481.973C217.293 482.155 217.137 489.501 217.338 490.343C218.246 494.125 220.794 497.649 225.09 497.409C232.119 497.017 236.649 487.929 240.35 483.051C243.315 487.037 245.461 491.466 248.441 495.385C249.866 497.259 254.825 501.618 253.506 504.306ZM178.164 453.861C176.008 458.808 171.672 463.514 168.656 467.996C166.951 464.387 165.752 456.101 169.796 453.432C171.327 452.423 179.527 450.732 178.164 453.861ZM222.735 468.593C223.328 466.689 223.985 464.799 224.718 462.944C225.975 466.902 226.618 467.019 222.735 468.593ZM233.735 472.646C235.295 475.29 237.895 477.89 237.487 481.211C237.178 483.727 234.904 486.305 233.28 488.058C230.592 490.958 224.638 496.526 220.744 492.674C217.491 489.457 218.624 480.611 220.137 476.991C222.297 471.819 230.017 466.348 233.735 472.646ZM226.103 467.228C226.997 466.873 225.119 461.102 226.862 460.527C228.382 463.994 229.815 464.932 226.103 467.228ZM201.547 389.565C200.968 387.436 199.64 387.525 200.118 384.893C200.432 383.167 201.802 381.324 202.841 379.957C204.912 377.231 207.644 374.984 210.598 373.283C216.834 369.693 225.399 368.202 230.983 373.822C225.763 374.646 209.76 379.799 209.658 386.939C215.463 385.821 220.028 379.99 225.85 378.153C230.629 376.644 235.811 376.75 240.565 378.343C253.578 382.701 248.167 393.949 240.822 401.254C236.462 405.592 231.234 408.83 225.519 411.065C222.874 412.099 221.251 412.213 218.651 411.693C218.164 411.596 217.595 410.693 217.011 410.499C215.56 410.018 215.981 411.647 214.786 410.915C213.743 410.278 211.519 406.163 210.81 404.984C209.681 403.109 209.155 401.286 207.769 399.574C206.382 397.861 205.707 395.566 204.424 394.016C203.808 393.27 202.119 393.3 201.666 392.573C200.985 391.48 201.851 390.683 201.547 389.565ZM181.562 473.447C184.52 468.308 189.58 463.945 193.495 459.454C193.735 466.836 188.442 471.891 181.562 473.447ZM185.559 475.82C191.667 473.671 195.032 468.529 195.655 462.295C196.446 454.398 201.404 450.253 204.389 443.159C205.534 440.44 206.868 431.493 211.305 434.054C212.827 434.932 213.73 438.236 214.523 439.728C216.442 443.338 218.624 446.839 220.659 450.383C222.316 453.27 224.8 456.172 224.069 459.647C223.431 462.676 221.38 465.904 220.178 468.761C217.341 475.508 213.614 481.723 210.5 488.322C209.244 490.984 207.757 497.287 203.921 497.255C200.885 497.229 201.224 493.91 199.225 492.772C196.702 491.336 193.833 494.069 191.76 495.202C194.147 491.171 198.32 488.889 203.01 489.648C197.394 484.055 193.599 491.602 188.779 493.282C184.212 494.875 176.11 487.364 172.265 485.235C173.736 482.744 175.065 479.697 177.595 478.059C179.994 476.503 182.939 476.742 185.559 475.82ZM135.901 526.933C136.57 523.712 138.46 521.809 139.658 518.884C141.047 522.43 137.794 524.522 135.901 526.933ZM232.943 546.695C232.615 557.54 231.729 568.356 231.409 579.204C231.262 584.207 230.376 588.979 229.788 593.924C229.291 598.106 229.544 602.213 226.912 605.786C222.762 611.418 214.693 613.037 208.429 615.124C203.829 616.656 199.176 618.046 194.633 619.748C190.545 621.28 187.251 623.601 183.364 625.422C179.887 627.051 176.134 628.016 172.673 629.752C169.093 631.548 166.264 633.735 162.587 635.334C158.185 637.247 154.558 640.651 150.643 643.353C147.197 645.732 143.551 647.569 140.586 650.56C137.806 653.367 134.287 654.597 131.137 657.091C127.806 659.727 124.319 661.441 120.639 663.508C113.1 667.745 102.929 674.98 93.8564 670.864C96.4513 667.55 101.762 664.365 102.166 659.799C102.691 653.85 97.5136 656.04 94.5158 657.94C89.9749 660.816 87.463 664.289 84.0062 668.124C79.9648 672.606 74.86 669.59 69.9152 668.33C73.2962 665.286 76.6502 662.214 80.025 659.165C82.8743 656.592 87.2335 653.809 88.9687 650.25C90.2085 647.705 90.1483 644.218 87.1556 642.897C83.8079 641.42 80.0219 644.535 77.5422 646.39C70.9598 651.315 66.6245 657.56 62.3027 664.414C60.0037 668.058 58.9445 667.779 54.7152 667.05C50.2335 666.278 45.7507 665.455 41.2316 664.914C47.218 658.766 53.9083 652.105 58.6361 644.912C60.1678 642.581 62.1656 636.438 57.4991 635.873C55.576 635.64 51.7474 639.573 50.2636 640.633C43.7809 645.266 37.5484 651.111 33.2515 657.876C31.8331 660.109 31.3876 662.593 28.6411 662.778C25.0503 663.021 18.3776 659.594 14.9135 658.535C21.5343 650.189 28.1084 641.783 35.8434 634.423C42.9502 627.66 50.0393 622.747 58.3506 617.56C67.259 611.999 75.5568 605.598 83.7352 599.03C91.5636 592.741 99.742 586.81 106.948 579.79C121.343 565.765 134.164 549.637 144.781 532.582C147.265 528.592 149.604 524.497 151.625 520.251C153.524 516.263 154.399 511.494 156.962 507.868C157.847 506.614 159.095 505.683 159.884 504.376C160.628 503.144 160.376 501.656 161.511 500.566C164.136 498.046 168.916 499.565 171.369 501.332C175.315 504.172 178.507 507.62 182.844 509.998C187.206 512.389 191.924 514.128 196.754 515.303C208.042 518.048 219.233 520.3 230.733 521.968C229.55 526.356 232.456 527.047 233.419 530.996C234.588 535.788 233.09 541.815 232.943 546.695ZM124.249 473.512C121.69 469.71 119.406 465.734 116.89 461.906C115.358 459.575 113.459 457.072 114.769 454.221C116.974 449.415 124.755 448.559 128.977 450.655C138.576 455.418 129.659 469.038 124.249 473.512ZM98.8417 386.544C97.9581 379.112 100.8 373.839 107.524 369.942C112.316 367.164 116.175 370.96 115.52 376.023C114.525 383.737 106.282 392.317 99.9912 396.342C99.58 393.08 99.2311 389.809 98.8417 386.544ZM97.8168 365.279C99.8002 363.704 105.112 365.713 107.41 365.85C104.25 368.612 101.089 371.373 97.9279 374.134C97.7213 372.239 95.9872 366.732 97.8168 365.279ZM108.481 293.501C124.473 291.422 106.064 308.584 101.429 311.274C102.183 307.622 104.036 294.08 108.481 293.501ZM151.055 263.454C148.908 272.25 132.214 281.846 132.039 267.438C131.975 262.069 134.99 262.504 139.392 261.988C141.903 261.695 152.283 258.426 151.055 263.454ZM93.3922 277.076C91.5179 281.995 90.0154 287.041 88.1785 291.966C87.3644 294.147 86.407 295.645 84.8909 297.373C83.622 298.818 82.1122 299.183 82.162 301.466C83.7518 301.159 84.9958 300.211 86.2803 299.298C85.9688 303.825 84.3686 308.697 83.5939 313.209C82.6656 318.62 81.8931 324.033 81.6065 329.52C80.9845 341.452 80.9793 353.34 81.241 365.279C81.3749 371.362 81.4351 377.449 81.7633 383.525C81.9273 386.548 82.1122 389.584 82.486 392.588C82.6376 393.801 83.5181 396.384 82.974 397.52C80.8381 401.983 71.3762 389.725 67.2673 391.524C67.8581 388.128 66.4947 388.871 64.2175 387.201C63.1147 386.392 62.3972 385.015 61.2467 384.293C60.8988 383.918 60.5156 383.585 60.0982 383.292C59.6226 382.643 59.1211 382.713 58.5936 383.498C53.9644 380.731 52.7682 374.833 50.2833 370.866C49.005 368.826 47.7704 368.508 47.5523 365.687C47.3633 363.229 47.733 360.725 47.6333 358.257C47.5201 355.473 47.3571 352.403 46.5762 349.707C45.6697 346.577 44.4226 346.833 41.9938 345.165C42.7425 344.837 43.2357 344.288 43.4745 343.516C42.6989 343.654 40.3417 344.615 39.7561 343.924C38.6045 342.567 41.322 342.386 42.0364 341.845C38.9887 340.491 39.6449 339.38 40.7446 336.9C41.0561 336.198 41.3531 335.15 41.6179 334.559C42.1963 333.266 42.5286 334.085 42.7196 332.479C42.9014 330.948 41.5442 327.938 41.1444 326.307C40.4736 323.571 40.1029 321.207 40.7051 318.356C41.1932 316.048 42.5057 313.958 42.5971 311.585C42.6231 310.918 41.6075 310.697 41.594 310.054C41.5743 309.113 42.4517 308.7 42.6802 307.831C43.2627 305.607 43 303.255 43.9969 301.145C44.894 299.249 46.706 296.797 47.9884 295.142C48.8773 293.996 51.0579 292.704 51.2968 291.191C51.4546 290.188 49.8939 290.304 49.9635 289.548C50.058 288.525 50.9157 288.194 51.1514 287.434C51.8004 285.349 51.9634 283.344 53.6404 281.746C55.7525 279.734 56.6705 280.577 56.7577 277.258C56.8003 275.639 55.5054 275.39 56.199 273.523C56.576 272.51 57.6881 271.912 58.3994 271.193C60.5115 269.063 61.9351 267.171 63.4387 264.538C64.7689 262.213 66.8903 260.859 68.2527 258.851C70.0273 256.233 67.3742 254.935 70.9754 254.196C70.4635 252.571 69.9193 251.257 71.2661 249.881C72.1155 249.013 74.2712 249.544 75.023 248.541C75.8849 247.388 74.6108 244.657 75.9098 243.909C76.9659 243.302 78.5474 245.175 80.2067 244.248C81.4715 243.541 83.3811 239.639 82.974 238.205C86.2439 240.044 85.4288 238.777 86.9937 236.417C87.3446 235.888 88.4079 235.771 88.7101 235.237C89.3145 234.169 89.1764 233.081 90.0465 232.213C91.4972 230.769 93.8699 231.14 95.4659 230.108C96.7847 229.256 96.7151 228.337 97.767 227.533C98.6662 226.846 100.143 226.714 101.017 226.002C102.729 224.607 102.746 223.135 104.888 221.934C107.425 220.512 109.672 219.302 111.979 217.417C113.484 216.189 114.912 214.011 116.672 213.2C119.106 212.079 121.002 212 123.383 210.4C125.104 209.244 126.731 207.336 128.42 206.361C129.695 205.627 130.589 205.785 132.195 205.33C135.086 204.51 135.79 201.786 138.148 200.677C139.767 199.916 142.124 200.613 143.902 200.213C149.434 198.971 154.899 196.292 160.451 194.808C167.227 192.998 174.052 191.412 180.88 189.811C174.605 198.316 166.613 205.99 158.507 212.745C155.846 214.963 141.266 225.071 149.125 229.388C152.28 231.12 159.133 225.524 161.68 224.156C166.809 221.401 172.121 219.196 177.493 216.968C186.179 213.365 197.491 206.957 207.144 207.473C201.268 214.682 193.933 220.469 187.212 226.838C181.036 232.69 171.73 238.18 174.642 247.759C165.967 245.552 158.175 242.943 149.155 243.521C145.115 243.78 141.072 243.294 137.05 243.86C132.677 244.478 128.559 245.942 124.356 247.226C121.031 248.241 117.357 248.321 114.298 250.01C112.82 250.827 110.992 251.993 109.664 253.006C107.893 254.357 107.491 255.252 106.1 257.032C101.14 263.384 96.3402 269.338 93.3922 277.076ZM66.259 397.295C65.988 396.195 65.7419 395.193 65.4314 393.937C68.1925 395.637 68.1925 395.637 66.259 397.295ZM45.3925 362.282C45.0519 362.752 43.622 362.903 43.2066 362.497C42.6895 361.992 44.0488 360.026 44.2668 359.608C44.8058 360.021 46.0456 361.376 45.3925 362.282ZM39.4809 349.539C39.8464 348.196 40.2129 346.855 40.5785 345.512C41.027 346.756 43.0509 348.132 43.0955 349.318C43.1236 350.103 39.8807 349.712 39.4809 349.539ZM40.6543 351.38C43.8224 353.466 44.1537 355.927 44.2481 359.527C40.457 358.271 41.0011 354.601 40.6543 351.38ZM95.7494 209.321C95.4296 210.186 94.0724 212.883 93.0776 210.997C92.7599 210.393 95.0879 209.569 95.7494 209.321ZM94.8398 206.381C95.6227 205.675 97.2011 206.553 98.0868 205.983C98.7078 205.583 98.5022 205.177 98.794 204.94C98.8521 204.893 99.6963 203.184 100.042 202.796C100.653 202.115 101.985 201.69 102.727 201.074C104.802 199.355 105.973 197.093 107.279 194.793C108.836 192.047 109.333 191.729 111.845 190.471C113.577 189.605 114.919 188.544 116.328 187.07C117.952 185.373 117.833 184.158 119.166 182.303C119.825 181.388 120.773 181.274 121.54 180.536C122.46 179.653 122.927 178.417 123.778 177.526C124.145 177.14 125.325 177.141 125.547 176.811C125.831 176.393 126.052 174.722 126.318 174.414C126.825 175.1 127.334 175.786 127.841 176.472C129.843 172.951 131.304 170.042 134.652 167.699C138.168 165.238 141.203 161.638 144.837 159.435C145.654 158.94 147.318 158.732 147.942 158.002C148.997 156.767 148.083 155.669 148.853 154.62C149.726 153.432 151.418 154.394 152.528 153.882C153.933 153.233 154.335 151.339 156.143 151.547C150.196 158.584 150.27 169.532 149.955 178.321C149.818 182.108 152.203 184.017 148.682 186.796C145.687 189.16 141.464 188.458 137.923 190.014C133.476 191.968 128.72 193.007 124.184 194.71C119.491 196.471 115.718 199.554 111.202 201.594C107.22 203.392 104.5 205.948 100.857 208.168C99.5032 208.993 97.4056 210.191 95.7909 209.205C94.7795 208.587 93.52 207.572 94.8398 206.381ZM162.015 147.381C162.273 146.382 167.35 143.754 168.599 142.897C170.473 141.608 173.248 138.462 175.34 139.712C176.065 136.808 178.894 133.577 181.393 132.962C184.166 132.278 188.922 129.901 191.65 127.825C192.447 127.219 192.709 126.333 193.647 125.765C195.279 124.774 196.899 125.315 198.472 123.965C198.712 123.759 200.888 120.166 200.974 120.201C201.085 120.586 201.187 120.976 201.275 121.368C202.926 120.452 204.397 119.724 205.426 118.556C205.659 118.291 204.146 117.602 204.624 117.077C205.209 116.434 206.514 117.153 207.105 116.543C205.267 125.667 206.635 137.411 215.892 142.037C204.884 143.226 194.132 139.917 182.988 141.949C177.654 142.923 172.231 144.52 167.379 146.974C164.406 148.478 160.604 153.863 157.645 151.248C158.819 149.682 160.611 148.709 162.015 147.381ZM215.427 121.132C219.544 116.097 225.788 114.105 232.076 115.908C239.438 118.019 236.333 123.163 235.221 128.875C233.097 125.76 228.495 122.671 224.576 122.577C219.02 122.445 221.12 127.074 224.456 128.733C227.489 130.239 232.691 130.659 234.862 133.4C236.975 136.066 236.165 140.427 236.506 143.572C234.863 143.327 233.22 143.083 231.577 142.839C232.956 135.5 226.887 135.145 221.229 133.075C215.511 130.986 210.743 126.862 215.427 121.132ZM233.866 103.06V109.871C231.578 108.566 229.288 107.261 226.998 105.956C229.288 104.991 231.578 104.025 233.866 103.06ZM252.267 157.482C259.91 159.554 267.501 161.745 274.849 164.603C277.517 165.641 280.44 166.008 283.055 167.18C285.545 168.295 285.919 168.179 285.033 170.361C282.552 176.475 276.675 175.419 271.526 174.484C263.466 173.02 255.573 170.99 247.614 169.08C239.834 167.215 231.89 165.992 224.228 163.653C216.365 161.255 208.703 158.983 200.615 157.399C198.255 156.937 179.583 155.224 179.725 153.273C191.484 151.745 203.591 153.25 215.403 153.409C227.678 153.574 240.36 154.255 252.267 157.482ZM241.891 133.833C242.037 129.629 242.096 125.412 242.618 121.234C246.116 125.552 249.274 126.844 253.684 122.797C257.906 118.922 258.848 116.902 264.201 120.545C268.841 123.704 273.232 123.558 278.16 120.793C281.166 119.106 285.997 112.214 289.157 113.633C290.662 114.309 291.766 117.035 293.286 118.038C295.194 119.294 298.127 120.166 300.35 120.654C305.602 121.804 308.73 118.427 312.026 114.814C316.806 109.576 316.666 112.618 321.098 116.251C326.04 120.302 330.173 118.323 334.649 114.865C337.375 122.854 338.395 131.578 339.166 139.953C339.425 142.781 340.396 146.796 337.856 148.796C336.066 150.206 332.267 150.261 330.11 151.04C322.405 153.826 315.001 157.779 308.557 162.839C306.046 164.81 303.857 167.224 300.426 166.775C297.156 166.347 293.979 163.61 291.349 161.802C288.495 159.842 285.607 157.617 282.272 156.524C280.319 155.884 277.19 156.116 275.481 154.943C272.303 152.761 276.043 147.039 275.251 143.198C274.652 140.282 272.974 134.202 268.958 135.911C262.981 138.454 266.459 148.382 269.746 151.481C263.022 150.287 255.578 148.543 249.093 146.327C244.084 144.616 241.711 138.961 241.891 133.833ZM354.657 154.308C368.46 150.432 381.375 147.819 395.739 147.113C402.098 146.8 408.253 146.998 414.541 147.055C418.16 147.088 420.918 144.169 418.027 140.811C414.025 136.162 401.817 137.932 396.408 137.723C381.91 137.163 368.617 138.811 354.886 143.59C356.338 140.915 359.826 140.568 362.217 139.185C365.149 137.487 367.143 134.69 368.396 131.586C371.656 123.514 368.375 115.907 364.965 108.532C371.663 110.334 378.592 114.28 385.326 115.282C386.739 115.492 387.644 115.357 388.893 115.871C389.66 116.186 389.902 117.276 390.852 117.514C391.311 117.63 392.413 116.592 392.933 116.739C394.984 117.319 393.362 117.473 394.659 118.312C395.688 118.978 395.604 119.836 397.492 119.521C398.329 119.383 399.237 118.088 399.678 118.053C400.24 118.007 400.11 117.323 400.97 117.523C402.534 117.886 402.396 119.901 402.917 120.893C403.473 121.949 402.683 123.353 404.371 123.93C405.632 124.363 405.949 123.03 407.022 123.126C407.673 123.184 409.025 124.123 409.6 124.694C411.453 126.536 413.991 128.569 416.483 129.768C416.238 129.521 417.658 128.928 417.318 128.789C417.09 128.696 418.581 129.056 418.558 129.051C419.997 129.378 420.757 131.587 421.484 132.393C422.822 133.869 424.9 135.428 426.774 136.08C430.015 137.207 429.916 135.859 431.099 139.711C433.403 136.088 434.287 142.155 437.144 142.823C438.624 143.169 438.452 142.535 439.796 143.31C440.72 143.841 441.335 145.467 442.031 146.252C442.33 145.12 442.628 143.987 442.926 142.857C444.984 146.756 449.427 152.939 454.299 151.821C454.299 152.885 453.86 154.157 454.684 155.065C455.259 155.7 456.191 154.979 456.641 155.348C457.034 155.67 457.974 156.952 458.275 157.163C458.868 157.579 459.944 157.883 460.459 158.297C460.913 158.662 461.138 160.405 461.641 161.034C462.587 162.218 464.223 162.453 464.996 163.873C465.173 162.473 465.349 161.072 465.525 159.672C467.059 160.858 467.191 161.779 467.568 163.513C468.105 165.983 467.393 165.404 469.097 166.447C470.771 167.472 471.644 167.357 473.179 169.136C474.683 170.88 474.697 171.955 476.868 170.138C477.272 171.482 477.402 173.22 478.48 174.25C479.294 175.029 482.666 175.062 482.987 176.9C476.653 171.556 480.821 179.673 482.991 176.914C483.449 179.867 485.61 180.821 488.079 182.925C490.381 184.884 490.758 184.742 491.544 188.035C491.526 187.963 492.701 188.691 492.786 188.837C490.543 189.157 494.02 191.663 494.608 192.122C495.037 192.456 495.596 191.657 496.308 192.198C497.123 192.818 497.787 194.226 498.45 195.075C500.248 197.377 501.578 199.355 503.47 201.226C505.511 203.246 506.504 205.8 508.464 208.161C510.639 210.783 511.815 213.798 513.634 216.644C515.362 219.351 517.658 221.524 519.66 224.003C522.851 227.948 523.937 236.635 529.885 236.864C529.537 237.225 530.022 239.917 530.079 240.414C530.36 242.859 530.173 245.212 531.62 247.427C531.951 244.9 533.273 245.874 534.421 247.201C536.331 249.409 534.654 248.853 534.755 251.091C534.877 253.803 535.185 251.705 536.219 254.073C537.028 255.928 537.471 257.132 537.905 259.19C534.545 259.457 533.006 256.711 531.764 254.051C531.245 252.938 531.065 251.109 530.146 250.239C529.168 249.313 527.824 249.24 526.819 248.207C524.89 246.222 524.054 243.127 521.78 241.195C519.211 239.013 518.642 237.982 516.518 235.373C514.169 232.487 510.925 230.46 508.461 227.669C505.993 224.872 506.193 226.399 503.093 225.387C499.796 224.309 494.465 213.943 490.311 217.936C490.475 215.324 486.564 212.867 484.587 211.921C483.732 211.512 482.737 211.882 481.882 211.269C480.954 210.604 480.888 209.322 479.952 208.524C479.952 208.524 478.518 208.872 478.227 208.725C477.635 208.425 477.63 207.363 477.107 207.014C475.66 206.046 473.934 205.032 472.398 204.208C468.664 202.205 465.364 199.739 461.761 197.328C458.674 195.262 454.938 191.531 451.37 190.442C448.254 189.491 446.295 189.976 443.743 188.071C442.353 187.034 442.762 186.685 440.529 186.04C438.402 185.426 437.208 185.742 436.081 183.487C434.11 179.541 435.354 171.839 434.973 167.414C434.568 162.718 434.087 157.905 432.863 153.339C431.415 147.942 429.502 145.121 423.713 146.392C412.243 148.913 400.912 151.312 389.39 153.525C366.43 157.936 343.864 165.133 321.409 171.523C319.699 172.011 310.157 174.195 312.106 169.261C313.004 166.985 319.044 166.137 321.065 165.422C332.164 161.494 343.313 157.492 354.657 154.308ZM350.8 144.265C349.123 144.904 347.447 145.543 345.77 146.183V141.52C347.447 142.435 349.123 143.349 350.8 144.265ZM343.831 119.609C345.288 120.8 348.251 117.934 349.489 117.353C351.606 116.362 354.3 115.511 356.665 115.714C361.025 116.092 364.214 120.385 363.415 124.737C362.063 132.101 351.571 135.583 345.786 138.462C345.601 135.852 344.756 132.715 346.586 130.458C348.175 128.498 351.256 128.64 352.722 126.555C356.411 121.316 346.413 120.841 344.178 125.007C343.296 122.344 342.415 119.682 341.533 117.02C343.661 116.667 342.726 118.707 343.831 119.609ZM354.151 105.195C352.069 106.541 349.987 107.887 347.906 109.233C346.874 104.574 350.391 103.961 354.151 105.195ZM543.839 267.346C541.113 268.647 540.431 265.54 538.471 265.406C540.787 263.982 540.787 263.982 543.839 267.346ZM554.926 335.19C555.266 339.656 555 344.173 555.595 348.621C556.048 352.005 557.419 355.154 557.565 358.576C557.885 366.071 555.354 373.703 550.243 379.197C545.408 384.394 538.491 388.867 531.964 391.052C529.024 392.035 525.954 394.217 523.097 395.023C519.938 395.916 516.936 393.974 514.329 397.457C512.591 382.515 513.861 366.902 513.724 351.866C513.587 336.797 513.749 321.723 511.2 306.817C508.93 293.541 504.454 278.608 496.205 267.747C492.854 263.337 488.729 259.725 484.378 256.343C482.12 254.589 479.862 252.713 477.348 251.328C473.478 249.195 470.182 249.49 465.973 248.883C459.95 248.013 454.351 247.278 448.305 248.974C442.677 250.554 436.479 252.352 431.437 255.096C426.416 257.83 420.584 258.957 415.371 261.405C411.825 263.071 404.459 268.636 400.524 267.634C396.716 266.663 391.078 260.2 388.646 257.304C385.538 253.604 382.967 249.315 380.21 245.334C379.242 243.936 377.269 241.775 377.017 239.981C376.58 236.865 377.828 237.883 380.804 238.232C388.457 239.129 395.654 240.549 402.988 242.958C406.638 244.156 413.775 249.005 417.425 246.099C422.998 241.663 414.53 234.038 411.429 231.477C406.144 227.112 400 223.871 394.367 219.992C388.382 215.871 380.469 211.483 376.617 205.137C387.864 208.457 399.1 212.26 410.018 216.54C415.014 218.498 419.952 220.567 424.643 223.171C427.279 224.633 432.603 228.589 435.777 226.694C442.676 222.576 426.831 210.615 424.545 208.171C420.992 204.373 417.511 200.611 413.607 197.165C410.973 194.84 406.835 193.205 405.61 189.776C409.982 191.359 413.517 194.459 417.611 196.565C419.754 197.669 421.71 198.304 424.077 198.642C426.601 199.003 426.902 199.405 428.89 200.408C430.438 201.191 432.029 202.236 433.768 202.768C435.006 203.148 437.17 203.213 438.253 203.916C438.807 204.705 439.378 205.482 439.969 206.245C440.629 206.439 441.279 206.662 441.92 206.917C442.88 207.773 443.45 208.954 444.384 209.837C451.165 216.249 460.234 220.838 467.836 226.21C475.028 231.292 482.66 235.889 489.568 241.435C497.517 247.819 505.767 254.68 512.528 262.335C516.349 266.661 519.49 271.566 522.7 276.35C525.024 279.814 528.404 282.687 530.412 286.259C534.792 294.046 538.427 302.463 543.142 310.125C547.946 317.931 554.205 325.688 554.926 335.19ZM490.311 380.371C491.621 374.967 499.011 368.657 503.734 366.274C501.354 372.163 495.012 376.178 490.311 380.371ZM502.497 399.223C498.469 407.58 480.757 408.536 483.16 396.168C484.337 390.109 489.335 386.39 493.625 382.425C495.608 380.593 500.465 374.037 503.535 375.093C503.391 379.806 503.114 384.54 503.124 389.254C503.13 392.4 503.923 396.265 502.497 399.223ZM497.378 302.898C499.012 306.568 500.64 309.625 497.608 312.909C496.24 314.391 491.782 317.633 489.765 316.913C483.291 314.604 495.634 304.549 497.378 302.898ZM458.219 270.239C459.778 270.154 461.292 270.386 462.833 270.291C464.368 270.196 464.53 269.923 465.953 270.118C466.103 270.336 466.253 270.554 466.403 270.773C466.597 272.237 467.367 272.396 468.71 271.251C470.578 271.666 471.793 271.944 473.579 272.953C468.758 276.429 462.89 280.471 456.98 281.638C447.638 283.481 450.219 270.68 458.219 270.239ZM315.008 348.411C314.04 350.36 311.254 345.491 310.564 344.584C311.85 344.58 315.988 346.445 315.008 348.411ZM390.068 297.117C397.326 292.882 405.946 289.163 413.741 286.01C415.112 292.614 408.427 301.139 404.309 305.658C400.98 309.313 396.966 313.103 392.452 315.206C387.571 317.48 382.237 316.481 382.474 310.101C382.561 307.769 383.092 304.017 384.041 301.886C385.265 299.138 387.579 298.567 390.068 297.117ZM291.957 176.987C293.037 176.924 304.772 175.407 304.71 176.867C304.525 181.256 293.135 177.81 291.957 176.987ZM208.975 261.725C215.173 254.078 225.179 245.823 225.325 235.135C225.541 219.407 208.087 227.254 199.312 227.908C203.952 223.349 227.269 204.222 213.477 197.429C209.513 195.476 203.878 197.384 199.9 198.407C192.842 200.222 186.28 203.366 179.346 205.553C184.301 200.279 192.861 194.285 192.581 186.298C192.238 176.575 184.257 178.926 177.356 180.352C174.704 180.901 162.857 185.614 160.631 182.414C159.816 181.242 161.135 179.753 161.414 178.709C161.908 176.863 161.755 176.218 161.772 174.332C161.806 170.527 164.334 165.64 162.272 162.101C161.801 162.905 161.397 163.742 161.061 164.611C160.381 162.552 160.838 160.367 160.158 158.308C177.387 162.714 194.914 165.126 212.251 168.887C221.028 170.791 229.288 174.069 238.185 175.545C247.158 177.032 255.975 179.309 264.964 180.728C273.166 182.021 281.024 184.176 289.146 185.828C297.064 187.439 305.184 183.909 312.912 182.121C330.221 178.118 347.524 174.017 364.856 170.133C384.856 165.649 405.661 161.815 424.805 154.337C425.176 164.304 425.973 174.252 427.191 184.151C418.737 180.154 406.19 174.942 397.643 182.094C394.222 184.955 393.168 189.896 394.52 194.097C395.992 198.671 400.499 200.795 403.473 204.238C394.422 201.917 371.071 185.557 366.915 202.094C363.979 213.774 378.299 221.318 385.3 227.892C378.347 226.531 369.036 220.972 364.953 229.906C361.425 237.63 365.675 246.034 370.028 252.404C372.387 255.856 375.04 259.104 377.548 262.448C378.874 264.217 380.169 266.011 381.562 267.728C382.96 269.45 385.596 271.253 386.576 273.106C388.548 276.843 384.568 277.071 381.474 278.421C377.61 280.107 374.292 282.938 370.759 285.194C362.668 290.36 355.596 295.158 346.035 296.809C336.191 298.508 326.712 300.283 316.998 302.654C307.314 305.017 299.409 307.287 289.51 304.233C284.997 302.841 281.321 301.603 276.534 301.865C271.506 302.14 268.566 301.879 264.432 298.765C246.644 285.367 227.335 274.373 208.975 261.725ZM176.905 248.275C183.78 244.825 190.701 241.359 197.803 238.395C203.681 235.94 212.607 233.081 219.042 234.157C217.228 238.817 213.918 242.64 210.367 246.071C207.227 249.106 203.304 253.686 199.505 255.804C196.054 257.726 192.04 254.681 188.637 253.405C184.898 252.004 179.752 251.351 176.905 248.275ZM178.633 265.677C182.059 264.254 189.422 269.031 192.538 270.273C198.662 272.715 204.819 275.265 210.216 279.117C203.626 286.733 196.163 293.696 187.295 298.587C181.461 301.806 171.627 305.497 166.123 299.653C159.209 292.31 167.521 277.348 172.416 271.055C172.578 272.132 172.741 273.207 172.904 274.284C174.466 271.784 175.658 266.914 178.633 265.677ZM304.409 330.857C300.134 331.757 298.682 330.944 295.86 327.666C293.953 325.451 292.079 323.15 289.928 321.158C287.733 319.125 282.313 314.223 289.219 317.046C295.514 319.618 300.906 320.904 307.832 319.896C315.751 318.745 323.134 315.396 330.942 313.702C326.661 317.447 322.412 321.23 318.124 324.965C313.593 328.91 310.165 329.644 304.409 330.857ZM305.386 360.98C296.019 368.029 277.162 367.266 283.509 351.757C284.473 349.401 285.822 347.184 287.383 345.177C287.903 344.507 288.829 343.119 289.571 342.669C291.642 341.412 291.068 341.26 293.06 343.356C294.778 345.163 308.208 359.929 305.386 360.98ZM302.609 334.031C303.467 333.752 307.082 331.656 307.906 332.816C308.74 333.99 301.652 338.052 302.609 334.031ZM370.798 441.534C368.692 446.574 351.837 453.869 354.977 443.711C356.368 439.211 357.679 435.804 362.926 435.462C365.954 435.266 372.653 437.097 370.798 441.534ZM401.033 373.244C403.808 369.204 412.971 363.741 416.883 369.766C418.768 372.669 414.194 374.156 411.428 373.41C409.943 373.007 408.728 372.12 407.113 372.053C405.037 371.968 403.008 373.597 401.033 373.244ZM408.389 377.255C406.502 379.165 395.123 388.74 393.28 387.263C396.996 381.951 401.263 376.018 408.389 377.255ZM389.804 474.152C385.853 474.376 387.826 468.421 388.208 466.04C389.164 467.699 394.194 473.904 389.804 474.152ZM399.844 463.479C398.566 461.205 395.122 457.819 395.9 454.892C396.496 452.655 401.872 449.646 404.123 450.93C407.113 452.636 402.779 463.857 399.844 463.479ZM493.606 439.627C491.916 445.451 490.164 443.948 484.864 445.077C479.546 446.209 475.87 450.724 471.189 453.146C472.815 449.708 473.824 445.519 476.546 442.729C477.176 442.085 481.034 440.813 478.836 439.321C476.914 438.017 474.151 442.249 473.326 443.403C469.271 449.08 466.435 456.013 464.094 462.545C462.942 465.753 462.02 469.022 461.475 472.391C460.989 475.393 461.513 478.535 461.018 481.459C460.221 486.169 453.824 486.193 449.977 487.407C446.494 488.506 443.027 489.698 439.412 490.29C436.278 490.804 433.026 489.868 429.989 490.486C426.7 491.154 425.223 493.105 421.484 492.664C418.437 492.305 415.585 490.903 412.496 490.763C409.605 490.633 406.722 491.633 403.848 490.819C400.948 489.997 401.088 489.679 401.748 486.83C402.16 487.599 402.573 488.368 402.986 489.136C404.142 488.229 404.942 485.466 405.65 484.168C406.749 482.158 407.644 481.463 407.237 478.96C406.636 475.262 403.303 472.632 402.547 469.115C401.758 465.446 404.471 462.445 406.075 459.382C408.267 455.189 408.238 452.079 406.401 447.743C407.786 448.108 409.171 448.474 410.557 448.841C408.658 444.719 402.218 446.39 398.989 447.611C397.366 448.224 394.793 450.636 393.047 450.575C390.647 450.49 389.396 447.335 388.365 445.598C385.38 440.571 381.973 435.607 378.443 430.94C377.472 429.656 376.2 428.831 376.535 427.368C376.821 426.127 379.604 424.367 380.507 423.602C383.893 420.739 388.203 419.152 391.383 416.138C396.19 411.584 401.733 408.321 406.647 403.857C411.767 399.206 417.042 394.935 422.377 390.54C427.781 386.089 432.462 380.844 437.827 376.348C439.217 378.867 441.91 387.886 444.989 388.584C448.58 389.397 448.473 385.149 448.295 382.592C448.04 378.949 446.017 375.409 445.792 371.932C445.55 368.213 449.129 366.55 451.829 364.399C456.001 361.075 465.233 353.506 460.27 347.275C455.995 341.909 442.093 352.198 438.262 355.292C435.005 357.921 432.489 360.299 428.823 362.373C426.244 363.83 421.919 369.436 418.863 368.918C415.228 368.303 413.808 364.333 409.361 364.464C405.015 364.591 401.324 367.721 398.629 370.864C392.537 377.967 390.444 387.471 384.892 394.876C382.155 398.526 378.605 401.54 375.636 404.995C372.376 408.786 371.683 413.153 368.468 416.863C359.268 404.607 349.244 393.002 339.543 381.148C334.697 375.228 329.953 369.238 325.212 363.236C323.435 360.986 321.431 358.875 319.804 356.512C317.575 353.276 317.976 350.677 317.101 347.068C316.714 345.468 314.897 343.552 315.383 342.023C316.037 339.969 320.63 338.356 322.287 337.516C329.05 334.083 335.184 329.792 341.491 325.597C353.169 317.831 364.983 310.549 377.404 303.915C377.19 306.773 375.33 309.735 376.579 312.602C377.161 310.953 378.082 303.604 380.284 303.289C379.862 303.349 380.209 312.712 380.55 314.049C381.566 318.038 384.515 320.766 388.736 320.739C396.772 320.687 403.975 311.945 408.436 306.154C411.456 302.233 414.357 297.673 415.42 292.765C416.377 288.359 415.325 285.295 419.905 283.057C429.303 278.467 438.777 274.727 448.828 272.293C448.378 276.624 447.122 281.957 451.059 285.072C455.405 288.511 461.091 285.446 465.182 283.171C469.235 280.918 475.484 274.729 480.244 276.527C484.926 278.295 488.185 284.167 490.806 288.066C493.115 291.503 495.629 293.981 492.954 297.812C489.956 302.105 488.005 306.295 485.603 310.958C484.68 312.751 483.799 313.92 484.452 315.756C484.663 316.353 487.07 319.901 487.724 320.41C491.894 323.655 497.525 317.482 500.502 315.139C501.552 325.23 501.787 335.276 502.21 345.398C502.521 352.811 505.391 360.11 499.307 365.529C493.225 370.947 488.148 376.509 484.441 383.844C482.461 387.763 480.685 391.785 478.543 395.623C477.112 398.187 474.094 401.947 475.941 404.964C477.89 403.115 478.47 400.302 480.094 398.217C481.067 402.545 482.047 407.347 486.625 409.182C491.893 411.292 497.128 407.64 501.794 405.608C500.121 417.179 496.858 428.424 493.606 439.627ZM488.221 452.928C484.606 460.655 481.341 469.971 474.665 475.661C473.198 476.91 466.97 481.787 464.6 480.971C462.588 480.276 463.695 476.211 464.046 474.469C465.825 465.627 468.902 460.063 476.072 454.422C479.039 452.087 482.849 449.102 486.676 448.526C490.795 447.906 489.609 449.959 488.221 452.928ZM590.195 636.334C580.822 623.588 567.574 613.683 555.054 604.107C549.383 599.77 543.134 596.517 537.404 592.178C530.927 587.273 524.348 582.541 517.092 578.845C503.336 571.835 488.329 566.949 475.347 558.66C469.016 554.618 462.09 550.711 456.138 546.173C453.523 544.179 451.214 541.63 448.851 539.346C446.656 537.224 441.943 534.144 441.07 531.039C444.723 530.441 446.8 526.897 450.061 526.535C451.135 526.415 457.865 528.196 456.945 524.931C459.386 524.87 459.67 524.834 461.716 524.3C462.563 524.078 463.567 524.424 464.424 524.121C465.735 523.658 466.626 522.322 467.95 521.81C468.891 521.446 472.385 521.852 472.915 521.399C474.361 520.164 472.825 520.273 471.962 518.729C474.773 518.658 476.703 520.078 479.521 518.568C480.379 518.108 481.105 517.048 481.937 516.499C483.411 515.524 483.944 517.035 484.954 515.012C485.899 517.803 485.873 517.031 488.151 516.21C490.42 515.392 492.059 514.802 494.643 514.597C500.817 514.109 507.013 514.858 513.158 514.42C515.406 514.259 517.327 513.748 519.561 514.043C521.527 514.301 520.935 515.669 522.57 513.826C522.95 513.398 521.722 512.226 522.31 511.611C522.57 511.339 523.416 511.53 523.737 511.39C526.61 510.136 526.623 511.888 527.133 514.171C528.818 513.776 530.537 513.419 532.001 512.431C531.261 511.771 530.024 511.042 530.738 509.837C533.168 510.758 534.757 510.333 533.542 513C535.987 513.808 536.444 512.755 538.64 512.524C539.939 512.388 541.752 513.195 542.834 512.157C544.016 511.025 542.152 509.794 544.322 508.82C544.768 509.047 545.097 509.389 545.313 509.845C546.485 510.2 546.274 510.661 544.681 511.229C548.949 513.442 547.946 510.969 549.739 508.352C550.153 507.749 552.007 505.875 552.852 506.781C554.133 508.152 551.517 508.589 552.078 509.953C553.05 512.319 556.441 509.287 557.482 508.089C558.27 507.184 558.591 505.448 559.44 504.772C560.619 503.832 562.316 505.284 563.792 505.024C570.537 503.842 576.906 494.773 571.825 488.703C570.46 487.072 569.304 487.396 567.677 486.366C566.068 485.349 565.166 483.588 563.875 482.134C560.928 478.816 557.32 476.33 553.2 474.741C543.642 471.054 533.344 468.365 523.308 466.386C518.66 465.47 513.712 464.068 508.954 464.078C506.15 464.083 501.928 466.264 499.307 465.219C494.211 463.189 501.692 452.794 502.927 449.437C506.553 439.573 509.289 429.057 511.083 418.702C511.434 416.675 511.299 414.05 512.029 412.119C512.867 409.9 513.047 410.213 514.84 410.033C518.08 409.705 521.623 411.404 524.997 410.817C528.736 410.167 532.777 410.469 536.552 409.312C538.287 408.781 539.896 408.204 541.038 406.739C541.398 406.28 540.997 405.88 541.225 405.559C541.295 405.457 542.586 404.065 542.628 403.985C542.615 403.265 542.677 402.55 542.816 401.843C544.124 402.929 543.479 405.207 545.684 405.26C546.077 402.831 546.081 402.341 547.675 400.975C547.554 401.08 548.876 399.956 548.706 400.076C548.786 399.644 548.945 399.239 549.182 398.865C549.928 398.506 550.715 398.314 551.543 398.293C553.266 396.521 552.551 395.576 552.551 393.191C553.941 393.913 555.331 394.636 556.722 395.358C557.058 388.292 561.36 384.423 564.219 378.697C565.437 376.257 566.678 374.35 566.969 371.407C567.137 369.709 566.699 368.211 567.402 366.611C568.039 365.159 569.466 364.377 570.062 362.795C571.235 359.683 570.36 355.71 570.424 352.478C570.514 347.996 570.961 343.528 571.108 339.048C571.395 330.253 570.511 321.215 569.195 312.522C568.566 308.364 567.513 304.33 566.686 300.216C566.006 296.834 564.379 293.662 563.797 290.517C563.555 289.209 563.929 288.036 563.535 286.59C563.015 284.69 562.147 282.821 561.501 280.955C559.994 276.595 558.503 272.242 556.807 267.95C553.52 259.632 549.673 251.564 546.018 243.406C542.502 235.561 539.59 227.473 535.036 220.147C530.55 212.932 525.72 205.838 520.777 198.932C515.627 191.739 509.117 185.559 504.123 178.3C494.746 164.671 481.668 153.44 467.985 144.166C439.75 125.028 409.238 105.92 375.381 99.3581C370.278 98.3698 365.11 97.6839 359.91 97.5561C356.683 97.4761 351.337 99.0359 348.282 97.9437C344.86 96.7205 345.173 92.8775 344.317 89.8628C343.215 85.9875 340.731 83.4487 337.909 80.7094C334.939 77.8255 332.244 74.4574 328.54 72.4964C324.786 70.5105 320.358 69.7674 316.199 69.1668C312.486 68.6295 306.938 69.1314 303.546 67.5134C300.456 66.0387 301.982 64.5038 304.875 65.7665C305.087 64.4903 305.258 63.6662 306.076 62.68C306.486 62.1843 308.426 61.4891 308.473 61.0266C308.528 60.4852 306.901 58.943 306.668 58.2446C306.168 56.7409 306.452 54.6583 307.046 53.247C309.963 55.8399 310.808 56.9882 314.065 54.5097C315.44 53.4632 315.862 53.0018 317.455 52.4739C317.887 52.3304 318.856 52.7732 319.233 52.5248C320.672 51.577 319.348 51.8004 320.032 50.6802C319.86 50.9628 321.069 47.9855 321.011 48.608C321.158 47.0221 321.627 47.5095 320.67 45.561C318.794 41.7492 314.019 41.5933 316.453 37.2431C317.41 35.5315 318.253 35.702 318.523 33.2203C318.668 31.886 318.488 30.3562 318.482 28.999C318.47 26.2233 318.993 24.2799 316.392 22.8666C313.892 21.5073 311.586 22.9986 310.571 19.6274C309.508 16.0899 310.579 11.5547 306.747 9.13233C303.946 7.36255 299.903 8.87564 296.809 8.00998C293.708 7.14327 290.856 3.97055 287.709 6.40647C285.473 8.1378 284.287 12.3944 280.074 10.0926C278.172 9.05439 277.126 5.56886 275.926 3.61409C274.016 0.498526 272.484 -0.626945 269.544 2.40757C267.732 4.27919 263.911 8.83511 263.677 11.4259C263.421 14.2858 265.916 15.4809 262.783 17.1727C259.667 18.8563 257.919 17.6217 255.389 21.0386C252.88 24.4285 254.822 26.3012 251.916 29.5446C248.282 33.5986 246.349 35.3486 246.4 40.8107C246.435 44.5571 243.125 47.7932 245.056 51.3474C247.22 55.3307 253.536 56.9872 257.365 58.6083C256.087 60.9705 254.333 62.4846 255.825 64.9164C257.177 67.1185 260.998 67.5757 263.367 67.1756C264.96 66.9075 265.017 67.1486 266.271 66.0284C267.093 65.2947 265.966 64.3791 267.658 63.9728C269.458 63.5384 272.334 67.0676 273.503 67.9499C270.89 71.3408 263.714 71.9747 259.917 73.6936C257.604 74.7422 255.477 76.2927 253.121 77.2301C250.984 78.0801 248.383 77.8827 246.445 79.1983C243.099 81.4701 241.706 87.0984 239.655 90.4073C237.333 94.1526 235.082 95.8923 230.627 96.6696C225.07 97.6392 220.595 98.0289 215.412 100.449C209.083 103.405 202.844 106.526 196.628 109.712C186.602 114.851 177.288 120.126 167.978 126.341C158.238 132.845 148.764 139.633 139.366 146.428C130.07 153.149 122.266 161.417 114.191 169.545C107.664 176.115 101.936 183.206 95.4337 189.774C87.7579 197.53 82.1122 207.318 74.995 215.546C71.101 220.046 67.3753 224.472 64.9319 229.774C62.9517 234.073 59.5084 238.29 57.2094 242.799C54.2718 248.565 51.492 254.238 48.194 259.812C46.841 262.099 45.2325 264.062 43.8048 266.246C41.9751 269.042 42.0831 271.743 41.5909 274.967C41.0769 274.18 40.5639 273.393 40.0499 272.608C39.1185 274.643 37.9918 276.644 37.185 278.728C36.6699 280.057 36.7509 281.944 36.2338 283.107C35.5848 284.567 34.7946 284.373 33.9857 285.589C33.1207 286.889 32.8424 288.636 31.9307 290.03C27.99 296.058 26.474 303.706 24.4491 310.584C21.7326 319.811 22.1615 330.416 22.309 339.93C22.4657 349.979 23.0151 360.029 24.5259 369.972C25.8945 378.977 28.8207 387.614 33.4021 395.51C37.3937 402.389 42.8982 406.399 49.9489 409.922C53.1866 411.541 56.1918 411.041 59.5904 411.299C63.3131 411.582 65.8519 412.593 69.7906 411.704C71.6805 411.277 72.5745 409.901 74.076 409.442C75.0054 409.159 75.5059 409.622 76.3979 409.514C77.6741 409.359 80.3282 408.734 81.7124 408.884C86.0186 409.354 85.2959 415.865 85.7195 419.188C86.3717 424.309 86.8493 429.485 87.7288 434.573C89.5782 445.275 93.5708 455.272 95.9301 465.789C84.9937 467.123 75.6129 469.164 65.3629 473.303C55.0796 477.455 44.6832 478.864 33.8611 480.928C23.7367 482.859 13.9987 486.467 5.89505 493.004C2.0966 496.066 -1.8493 499.65 0.939831 504.694C2.72379 507.919 5.93866 508.739 8.71429 510.614C9.27502 509.904 7.65305 508.401 7.35607 507.984C9.68934 508.463 9.61769 509.552 11.3217 510.5C12.8108 511.328 14.0298 511.299 15.6601 511.884C19.6403 513.314 21.5956 516.882 25.5301 517.883C26.7678 518.198 28.3867 518.952 29.6525 519.166C31.1727 519.423 32.3108 518.757 33.8517 519.039C34.6835 519.587 35.5827 519.979 36.5495 520.213C37.1829 519.919 37.8091 519.609 38.4259 519.281C40.6397 519.511 42.0073 520.903 43.8058 522.048C43.9262 520.606 43.7528 519.109 45.1173 518.168C45.65 519.57 44.7892 520.458 46.2429 521.422C48.085 522.645 50.5045 521.119 52.1534 520.345C52.6197 525.004 63.4065 524.73 66.826 524.663C71.561 524.572 76.2909 522.693 81.0675 523.742C83.5046 524.276 86.1058 524.834 88.5315 525.528C91.4525 526.362 94.9841 527.109 97.8594 528.161C99.0027 528.58 100.403 529.922 101.62 529.831C102.589 529.759 102.849 528.33 103.977 528.37C105.253 528.417 105.682 529.839 106.786 530.267C108.44 530.906 109.96 529.69 111.531 530.304C112.096 530.525 112.861 531.471 113.584 531.78C114.681 532.248 116.853 532.254 118.074 532.479C119.805 532.8 121.355 532.584 122.838 532.69C124.034 532.777 124.008 533.581 124.58 533.633C125.237 533.692 126.38 531.435 127.262 531.104C128.546 530.622 130.877 531.77 132.187 531.972C122.698 544.834 111.257 556.202 98.8552 566.156C85.4776 576.894 71.7791 587.618 57.4337 597.036C44.4091 605.588 31.8009 612.984 21.7025 625.056C13.1877 635.235 -0.366469 646.126 1.72278 660.88C3.81099 675.621 19.8178 681.62 32.6441 684.434C48.7755 687.974 65.3815 686.549 81.5566 688.539C88.4547 689.388 96.1191 688.935 103.063 688.212C111.264 687.358 118.293 682.006 125.344 678.136C138.026 671.174 148.868 661.86 161.36 654.681C177.001 645.691 192.477 636.167 209.624 630.147C217.601 627.346 225.813 624.15 232.248 618.389C233.206 617.532 233.919 616.238 235.001 615.531C236.84 614.331 237.333 615.548 238.401 615.184C239.222 614.905 240.018 614.017 240.728 613.751C242.527 613.077 243.33 613.355 245.345 613.355C243.616 612.359 242.033 609.789 243.828 607.695C246.9 604.107 247.43 609.84 248.584 611.168C249.563 609.91 249.188 608.791 248.938 607.362C249.764 607.908 250.592 608.453 251.419 609C250.849 606.234 251.391 603.687 252.856 601.277C254.207 599.057 254.541 599.369 254.913 596.291C259.11 600.122 259.93 590.824 260.308 587.434C260.673 584.147 260.312 581.787 262.474 578.912C264.795 575.826 268.324 573.875 271.27 571.478C275.924 567.689 281.045 562.904 287.481 566.537C292.561 569.407 295.326 576.439 300.093 580.052C302.984 582.245 306.036 582.467 307.879 585.866C309.369 588.614 309.853 591.903 311.26 594.724C314.668 601.563 319.574 609.39 325.171 614.635C330.381 619.519 337.069 619.494 343.166 622.522C349.201 625.521 355.472 628.77 361.861 630.943C368.838 633.316 376.362 634.326 383.155 637.201C386.649 638.681 389.774 640.908 393.299 642.324C397.101 643.851 401.106 644.928 404.958 646.326C420.222 651.871 435.159 658.669 451.194 661.742C458.306 663.105 464.89 666.807 472.054 667.587C475.127 667.921 477.633 668.344 480.641 669.113C485.358 670.319 484.359 670.96 486.097 674.893C488.956 681.369 495.938 677.534 501.32 677.696C509.935 677.956 518.419 676.563 527.02 676.497C542.062 676.382 556.545 674.687 571.096 669.748C585.704 664.79 602.336 652.842 590.195 636.334Z" fill="black"/>
<path fill-rule="evenodd" clip-rule="evenodd" d="M416.321 130.398C417.01 130.729 416.527 130.604 416.321 130.398Z" fill="black"/>
<path fill-rule="evenodd" clip-rule="evenodd" d="M151.363 406.196C154.63 402.885 168.53 403.554 169.581 409.477C170.752 416.087 158.332 426.072 153.786 428.871C147.937 432.474 140.797 433.149 141.834 424.104C142.618 417.271 146.711 410.91 151.363 406.196ZM162.842 399.38C163.266 401.212 160.142 400.589 159.282 400.154C158.876 399.322 162.418 397.542 162.842 399.38ZM138.872 411.503C141.644 411.752 144.821 407.304 146.913 405.789C147.837 407.218 141.741 415.073 141.07 416.865C139.395 421.343 138.463 427.001 140.746 431.468C147.421 444.521 164.501 425.881 168.773 419.37C171.762 414.817 173.831 409.17 169.609 404.708C168.106 403.118 165.623 402.677 164.227 401.166C162.389 399.18 163.835 396.615 160.14 397.048C157.59 397.348 154.529 399.648 152.05 400.481C149.062 401.483 146.376 402.523 143.768 404.381C143.18 404.8 135.447 411.195 138.872 411.503Z" fill="black"/>
<path fill-rule="evenodd" clip-rule="evenodd" d="M334.82 415.884C333.077 424.852 324.191 434.052 314.84 434.409C305.528 434.764 302.513 425.008 304.157 417.232C305.559 410.6 311.291 399.078 319.469 400.348C325.898 401.345 336.313 408.197 334.82 415.884ZM328.89 400.895C322.986 396.327 314.829 394.213 307.986 397.838C305.742 399.026 296.786 404.268 299.511 407.817C303.186 404.969 306.358 401.017 311.133 400.07C310.33 403.772 305.744 407.102 304.128 410.707C302.239 414.918 301.206 419.738 301.515 424.366C302.066 432.602 307.583 439.002 316.124 437.87C323.944 436.833 330.78 430.84 334.51 424.102C339.491 415.105 336.685 406.926 328.89 400.895Z" fill="black"/>
<path fill-rule="evenodd" clip-rule="evenodd" d="M274.062 436.27C269.858 442.494 263.448 448.349 256.037 450.272C246.442 452.76 249.138 444.831 252.005 439.141C254.54 434.11 258.889 425.456 265.512 425.503C267.76 425.517 271.946 426.604 273.916 427.806C277.799 430.176 276.275 432.995 274.062 436.27ZM265.107 422.59C266.616 420.91 273.296 413.706 274.191 419.321C276.109 417.097 274.596 415.252 272.14 415.017C269.178 414.734 265.939 418.033 263.801 419.672C259.401 423.044 256.014 426.497 253.098 431.225C249.883 436.437 241.686 448.216 248.86 453.388C256.614 458.978 267.9 448.654 272.756 443.33C275.861 439.924 279.974 434.923 278.793 429.929C277.343 423.795 270.208 423.151 265.107 422.59Z" fill="black"/>
<path fill-rule="evenodd" clip-rule="evenodd" d="M232.021 322.279C227.682 327.23 218.868 334.443 211.605 333.593C204.981 332.818 207.567 325.383 209.911 321.785C213.433 316.377 218.151 311.3 224.968 311.004C227.911 310.877 231.725 310.937 234.004 313.165C237.117 316.209 234.314 319.664 232.021 322.279ZM231.56 308.524C226.477 306.768 224.48 306.099 219.54 308.891C215.573 311.133 212.055 314.302 209.333 317.9C205.259 323.286 201.15 335.401 211.611 336.916C223.086 338.579 250.381 315.032 231.56 308.524Z" fill="black"/>
<path fill-rule="evenodd" clip-rule="evenodd" d="M247.2 339.434C243.899 342.806 239.778 345.557 235.074 346.496C237.064 342.057 241.507 332.356 246.775 331.005C249.202 330.381 251.969 331.198 251.769 333.963C251.625 335.962 248.502 338.103 247.2 339.434ZM251.449 327.698C248.716 326.328 249.578 325.392 246.398 326.467C243.892 327.313 240.731 328.782 238.644 330.474C237.506 331.398 233.961 334.672 234.395 336.338C235.181 339.366 237.825 334.726 238.52 333.834C239.711 334.805 233.62 343.52 233.258 344.955C231.907 350.296 236.1 350.861 240.209 349.113C245.75 346.758 262.159 333.064 251.449 327.698Z" fill="black"/>
<path fill-rule="evenodd" clip-rule="evenodd" d="M332.693 471.428C333.102 467.887 333.683 464.143 336.933 462.155C339.861 460.362 342.894 460.622 343.327 464.298C343.731 467.712 340.386 473.775 337.68 475.637C333.913 478.231 333.187 474.998 332.693 471.428ZM337.533 479.486C345.268 474.96 350.143 454.203 335.885 460.02C327.783 463.326 330.763 483.447 337.533 479.486Z" fill="black"/>
<path fill-rule="evenodd" clip-rule="evenodd" d="M271.473 393.411C272.693 390.911 274.088 390.082 276.562 388.987C274.913 390.544 273.228 391.983 271.473 393.411ZM273.258 387.25C271.506 389.008 267.491 391.688 268.053 394.707C268.567 397.463 270.672 397.305 272.581 396.446C276.584 394.646 278.812 386.767 283 386.029C278.355 383.085 277.271 383.222 273.258 387.25Z" fill="black"/>
<path fill-rule="evenodd" clip-rule="evenodd" d="M273.873 230.769C274.096 239.16 274.292 247.55 274.477 255.941C274.542 258.89 273.838 263.094 274.723 265.919C275.114 267.163 278.648 272.557 279.902 272.906C284.289 274.127 282.721 263.128 282.752 260.42C282.859 251.283 282.725 242.136 282.688 232.999C282.667 228.29 283.997 188.808 277.887 189C276.835 189.034 274.242 193.548 273.852 194.453C272.624 197.295 273.076 201.508 273.104 204.538C273.187 213.278 273.641 222.03 273.873 230.769Z" fill="black"/>
<path fill-rule="evenodd" clip-rule="evenodd" d="M310.866 255.229C311.21 257.549 311.029 261.417 313.641 262.62C315.913 263.666 316.784 262.422 317.634 260.478C319.588 256.006 318.883 249.169 318.847 244.545C318.775 235.381 317.743 226.256 317.03 217.127C316.716 213.121 317.367 209.098 316.867 204.906C316.647 203.067 316.428 195.667 313.018 196.012C309.935 196.323 310.213 204.078 310.045 206.076C308.647 222.71 308.404 238.625 310.866 255.229Z" fill="black"/>
<path fill-rule="evenodd" clip-rule="evenodd" d="M456.386 446.239C455.079 452.919 433.76 476.182 428.392 463.172C425.207 455.452 432.111 447.049 437.494 442.581C440.826 439.815 444.988 437.101 449.529 437.939C453.384 438.65 457.215 441.996 456.386 446.239ZM445.377 434.256C443.871 434.612 431.285 443.45 431.169 443.334C430.076 442.237 438.015 430.404 438.832 429.369C445.562 420.842 450.029 427.299 454.238 434.001C453.342 429.998 450.875 424.186 446.755 422.493C441.552 420.356 437.494 425.631 434.991 429.424C431.453 434.785 429.502 440.606 427.537 446.656C426.599 449.541 425.531 452.157 423.944 454.758C422.377 457.325 419.635 460.155 420.04 463.402C422.268 462.164 423.451 459.74 424.854 457.743C426.42 458.377 425.882 463.369 426.2 464.64C426.999 467.833 429.181 470.332 432.555 470.881C438.844 471.904 445.633 466.086 449.838 462.134C454.269 457.97 459.038 452.262 459 445.853C458.959 439.157 452.374 432.6 445.377 434.256Z" fill="black"/>
<path fill-rule="evenodd" clip-rule="evenodd" d="M462.427 326.913C458.859 332.374 452.598 338.92 445.973 340.189C441.11 341.12 437.902 337.516 439.856 332.651C441.506 328.539 447.128 325.942 450.813 324.133C453.736 322.698 467.365 319.356 462.427 326.913ZM459.802 317.981C452.493 317.705 446.597 322.989 441.147 327.207C442.378 322.362 445.162 317.091 449.083 313.938C454.418 309.646 459.476 312.311 465.093 314.457C463.707 310.084 457.487 308.511 453.524 309.129C448.514 309.911 444.911 314.188 442.378 318.326C439.356 323.262 438.322 329.079 434.765 333.709C433.136 335.828 423.051 343.759 425.335 347C429.101 343.001 432.869 339.003 436.636 335.004C437.613 339.73 438.689 345.112 444.723 344.652C449.542 344.284 455.038 340.188 458.562 337.057C463.112 333.013 472.068 318.445 459.802 317.981Z" fill="black"/>
<path fill-rule="evenodd" clip-rule="evenodd" d="M357.414 364.611C354.318 366.034 347.502 367.969 345.771 363.692C343.366 357.751 351.104 347.331 354.787 343.372C357.053 340.937 358.59 339.677 361.749 341.253C364.271 342.512 367.977 346.088 368.944 348.838C371.021 354.741 362.257 362.383 357.414 364.611ZM364.518 336.078C367.039 336.647 367.348 339.849 364.195 338.619C361.833 337.698 361.284 335.349 364.518 336.078ZM367.683 340.588C366.742 337.716 368.657 333.211 364.02 333.004C361.393 332.887 356.58 335.558 354.286 336.644C351.106 338.148 348.114 340.445 346.454 343.68C344.916 346.677 346.014 347.467 348.358 344.98C348.644 345.175 343.056 359.589 343.007 361.033C342.789 367.633 347.461 371.98 354.023 370.81C360.054 369.734 365.489 364.802 368.808 359.825C370.487 357.305 371.866 354.421 371.991 351.335C372.185 346.602 369.029 344.699 367.683 340.588Z" fill="black"/>
<path fill-rule="evenodd" clip-rule="evenodd" d="M396.611 338.167C394.066 333.267 399.962 325.02 405.241 327.432C416.233 332.455 399.949 344.592 396.611 338.167ZM406.485 331.77C405.305 331.818 397.848 334.699 398.946 336.651C400.452 339.33 405.895 332.848 406.485 331.77Z" fill="black"/>
<path fill-rule="evenodd" clip-rule="evenodd" d="M45.9458 322.713C45.6511 320.625 40.9727 323.656 41.0001 325C41.7736 323.452 46.5597 327.062 45.9458 322.713Z" fill="black"/>
<path fill-rule="evenodd" clip-rule="evenodd" d="M301.806 164.995C307.762 164.557 300.173 134.509 295.833 137.166C291.127 140.046 296.34 165.396 301.806 164.995Z" fill="black"/>
<path fill-rule="evenodd" clip-rule="evenodd" d="M312.929 150.964C318.509 151.763 317.622 138.95 314.621 136.657C309.081 132.424 306.154 149.994 312.929 150.964Z" fill="black"/>
</svg>
